<!--?xml version="1.0" standalone="no"?-->
              <svg id="sw-js-blob-svg" viewBox="0 0 100 100" xmlns="http://www.w3.org/2000/svg" version="1.1">
                    <defs> 
                        <linearGradient id="sw-gradient" x1="0" x2="1" y1="1" y2="0">
                            <stop id="stop1" stop-color="rgba(255, 255, 255, 0.59)" offset="0%"></stop>
                            <stop id="stop2" stop-color="rgba(251, 180.513, 31, 0.78)" offset="100%"></stop>
                        </linearGradient>
                    </defs>
                <path fill="url(#sw-gradient)" d="M19,-29.2C23.9,-26.4,26.5,-19.9,30.7,-13.3C35,-6.7,40.7,0,41.7,7.3C42.6,14.6,38.8,22.5,32.9,27.5C27,32.5,18.9,34.5,11.6,34.4C4.3,34.3,-2.2,32,-8,29.4C-13.8,26.7,-19,23.8,-25.4,20C-31.9,16.2,-39.7,11.5,-43.1,4.6C-46.6,-2.2,-45.6,-11.3,-42.1,-19.3C-38.6,-27.3,-32.5,-34.2,-25.1,-35.9C-17.6,-37.5,-8.8,-33.8,-0.9,-32.4C7.1,-31.1,14.1,-32,19,-29.2Z" width="100%" height="100%" transform="translate(50 50)" stroke-width="0" style="transition: all 0.3s ease 0s;" stroke="url(#sw-gradient)"></path>
              </svg>