<svg id="e4Z5jJYiUQA1" xmlns="http://www.w3.org/2000/svg" xmlns:xlink="http://www.w3.org/1999/xlink" viewBox="0 0 300 300" shape-rendering="geometricPrecision" text-rendering="geometricPrecision"><rect width="300" height="56.863263" rx="0" ry="0" transform="translate(0 119.280615)" fill="#1f1135" stroke-width="0"/><ellipse rx="57.524464" ry="29.423433" transform="translate(77.532399 165.895266)" fill="#240d32" stroke-width="0"/><ellipse rx="25.786829" ry="19.174821" transform="translate(152.909283 180.772283)" fill="#251235" stroke-width="0"/><ellipse rx="22.566782" ry="22.480824" transform="translate(21 184.078287)" fill="#231439" stroke-width="0"/><ellipse rx="33.721238" ry="4.628406" transform="translate(237.542978 176.143878)" fill="#231439" stroke-width="0"/><ellipse rx="12.893414" ry="20.331923" transform="translate(165.802698 186.227189)" fill="#1c1332" stroke-width="0"/><ellipse rx="26.117429" ry="17.025919" transform="translate(154 182.921185)" fill="#231132" stroke-width="0"/><ellipse rx="31.228511" ry="11.901613" transform="translate(268.771489 183.901613)" fill="#27102e" stroke-width="0"/><ellipse rx="25.786829" ry="13.224014" transform="translate(237.542978 180.224014)" fill="#190e29" stroke-width="0"/><ellipse rx="10.070088" ry="16.860618" transform="matrix(.615661 0.788011-.788011 0.615661 291 184)" fill="#19102b" stroke-width="0"/><ellipse rx="16.397779" ry="19.17482" transform="translate(133.602221 180.772284)" fill="#271333" stroke-width="0"/><ellipse rx="27.5" ry="27.5" transform="translate(193.5 187.198493)" fill="#230e2a" stroke-width="0"/><ellipse rx="30" ry="30" transform="translate(98.690823 176.970378)" fill="#1f0c32" stroke-width="0"/><ellipse rx="30" ry="30" transform="translate(56 176.143878)" fill="#230f39" stroke-width="0"/><rect width="295.177226" height="23.253256" rx="0" ry="0" transform="translate(4.822774 123.717122)" fill="#231033" stroke-width="0"/></svg>
